# Blender v2.71 (sub 0) OBJ File: ''
# www.blender.org
o Cube
v 1.000000 -1.000000 -1.000000
v 1.000000 -1.000000 1.000000
v -1.000000 -1.000000 1.000000
v -1.000000 -1.000000 -1.000000
v 1.000000 1.000000 -1.000000
v 1.000000 1.000000 1.000001
v -1.000000 1.000000 1.000000
v -1.000000 1.000000 -1.000000
vt 0.3335 0.3331
vt 0.3335 0.0002
vt 0.6664 0.0002
vt 0.0002 0.3331
vt 0.0002 0.0002
vt 0.3331 0.0002
vt 0.6664 0.3335
vt 0.6664 0.6664
vt 0.3335 0.6664
vt 0.3331 0.6668
vt 0.3331 0.9998
vt 0.0002 0.9998
vt 0.6668 0.0002
vt 0.9998 0.0002
vt 0.9998 0.3331
vt 0.3331 0.6664
vt 0.0002 0.6664
vt 0.0002 0.3335
vt 0.6664 0.3331
vt 0.3331 0.3331
vt 0.3335 0.3335
vt 0.0002 0.6668
vt 0.6668 0.3331
vt 0.3331 0.3335
vn 0.000000 -1.000000 0.000000
vn 0.000000 1.000000 0.000000
vn 1.000000 -0.000000 0.000000
vn -0.000000 -0.000000 1.000000
vn -1.000000 -0.000000 -0.000000
vn 0.000000 0.000000 -1.000000
s off
f 2/1/1 3/2/1 4/3/1
f 8/4/2 7/5/2 6/6/2
f 1/7/3 5/8/3 6/9/3
f 2/10/4 6/11/4 7/12/4
f 7/13/5 8/14/5 4/15/5
f 1/16/6 4/17/6 8/18/6
f 1/19/1 2/1/1 4/3/1
f 5/20/2 8/4/2 6/6/2
f 2/21/3 1/7/3 6/9/3
f 3/22/4 2/10/4 7/12/4
f 3/23/5 7/13/5 4/15/5
f 5/24/6 1/16/6 8/18/6
